<svg width="129" height="57" viewBox="0 0 129 57" fill="none" xmlns="http://www.w3.org/2000/svg">
<line y1="-1.5" x2="54.8486" y2="-1.5" transform="matrix(-0.389293 0.921114 -0.768712 -0.639595 126 2.09064)" stroke="#489FB5" stroke-width="3"/>
<line y1="-1.5" x2="54.8486" y2="-1.5" transform="matrix(-0.389293 0.921114 -0.768712 -0.639595 84.2262 2)" stroke="#489FB5" stroke-width="3"/>
<line y1="-1.5" x2="55.6447" y2="-1.5" transform="matrix(0.343388 0.939194 -0.811614 0.584194 84.4725 2.32404)" stroke="#489FB5" stroke-width="3"/>
<line y1="-1.5" x2="55.6447" y2="-1.5" transform="matrix(0.343388 0.939194 -0.811614 0.584194 43.5176 2.2352)" stroke="#489FB5" stroke-width="3"/>
<line y1="-1.5" x2="54.566" y2="-1.5" transform="matrix(0.35355 -0.935416 0.788467 0.615078 3 56)" stroke="#344055" stroke-width="3"/>
<line y1="-1.5" x2="54.566" y2="-1.5" transform="matrix(0.35355 -0.935416 0.788467 0.615077 44.7558 55.0217)" stroke="#344055" stroke-width="3"/>
<line y1="-1.5" x2="55.9263" y2="-1.5" transform="matrix(-0.379386 -0.925238 0.793163 -0.609009 44.4966 54.7042)" stroke="#344055" stroke-width="3"/>
<line y1="-1.5" x2="55.9263" y2="-1.5" transform="matrix(-0.379387 -0.925238 0.793164 -0.609008 85.4337 53.7451)" stroke="#344055" stroke-width="3"/>
</svg>
